<svg width="21" height="21" viewBox="0 0 21 21" fill="none" xmlns="http://www.w3.org/2000/svg">
<path d="M10.1973 6.79855C8.32433 6.79855 6.79587 8.32703 6.79587 10.2C6.79587 12.073 8.32433 13.6014 10.1973 13.6014C12.0702 13.6014 13.5986 12.073 13.5986 10.2C13.5986 8.32703 12.0702 6.79855 10.1973 6.79855ZM20.3989 10.2C20.3989 8.79145 20.4116 7.39566 20.3325 5.98966C20.2534 4.35655 19.8809 2.90717 18.6867 1.71297C17.49 0.516207 16.0431 0.146207 14.4101 0.0671038C13.0016 -0.0119997 11.6058 0.000758995 10.1998 0.000758995C8.79128 0.000758995 7.39552 -0.0119997 5.98954 0.0671038C4.35647 0.146207 2.90712 0.518759 1.71293 1.71297C0.516198 2.90972 0.146205 4.35655 0.0671025 5.98966C-0.0119994 7.39821 0.000758981 8.794 0.000758981 10.2C0.000758981 11.606 -0.0119994 13.0043 0.0671025 14.4103C0.146205 16.0434 0.518749 17.4928 1.71293 18.687C2.90967 19.8838 4.35647 20.2538 5.98954 20.3329C7.39807 20.412 8.79384 20.3992 10.1998 20.3992C11.6083 20.3992 13.0041 20.412 14.4101 20.3329C16.0431 20.2538 17.4925 19.8812 18.6867 18.687C19.8834 17.4903 20.2534 16.0434 20.3325 14.4103C20.4142 13.0043 20.3989 11.6086 20.3989 10.2ZM10.1973 15.4336C7.30111 15.4336 4.96377 13.0962 4.96377 10.2C4.96377 7.30379 7.30111 4.96641 10.1973 4.96641C13.0934 4.96641 15.4307 7.30379 15.4307 10.2C15.4307 13.0962 13.0934 15.4336 10.1973 15.4336ZM15.6451 5.97435C14.9689 5.97435 14.4228 5.42828 14.4228 4.75207C14.4228 4.07586 14.9689 3.52979 15.6451 3.52979C16.3213 3.52979 16.8673 4.07586 16.8673 4.75207C16.8675 4.91264 16.8361 5.07167 16.7747 5.22005C16.7134 5.36844 16.6233 5.50326 16.5098 5.6168C16.3963 5.73034 16.2614 5.82036 16.1131 5.88172C15.9647 5.94307 15.8057 5.97455 15.6451 5.97435Z" fill="black" fill-opacity="0.87"/>
</svg>
