<svg width="21" height="22" viewBox="0 0 21 22" fill="none" xmlns="http://www.w3.org/2000/svg">
<path d="M19.3011 0H1.53836C1.13036 0 0.739074 0.171081 0.450576 0.475608C0.162077 0.780134 0 1.19316 0 1.62383V20.3734C0 20.8041 0.162077 21.2171 0.450576 21.5217C0.739074 21.8262 1.13036 21.9973 1.53836 21.9973H19.3011C19.7091 21.9973 20.1004 21.8262 20.3889 21.5217C20.6774 21.2171 20.8395 20.8041 20.8395 20.3734V1.62383C20.8395 1.19316 20.6774 0.780134 20.3889 0.475608C20.1004 0.171081 19.7091 0 19.3011 0ZM6.21133 18.7389H3.07817V8.2337H6.21133V18.7389ZM4.64258 6.7779C4.28718 6.77579 3.94033 6.6626 3.64581 6.45261C3.3513 6.24262 3.12231 5.94524 2.98776 5.59802C2.8532 5.25079 2.81911 4.86927 2.88977 4.50161C2.96044 4.13394 3.1327 3.79661 3.38482 3.53219C3.63694 3.26777 3.95761 3.08811 4.30637 3.01588C4.65513 2.94365 5.01634 2.98209 5.34442 3.12635C5.67251 3.2706 5.95275 3.51421 6.1498 3.82643C6.34684 4.13865 6.45184 4.50549 6.45156 4.88064C6.45492 5.13181 6.41033 5.38111 6.32046 5.6137C6.23059 5.84629 6.09728 6.0574 5.92847 6.23445C5.75966 6.4115 5.55881 6.55086 5.33789 6.64423C5.11697 6.73759 4.8805 6.78306 4.64258 6.7779ZM17.7599 18.7481H14.6282V13.0089C14.6282 11.3164 13.9466 10.7939 13.0667 10.7939C12.1376 10.7939 11.2258 11.5333 11.2258 13.0517V18.7481H8.09268V8.24133H11.1057V9.69712H11.1462C11.4487 9.05096 12.508 7.94651 14.1246 7.94651C15.8728 7.94651 17.7613 9.04179 17.7613 12.2497L17.7599 18.7481Z" fill="black" fill-opacity="0.87"/>
</svg>
